<?xml version="1.0" standalone="no"?>
<!DOCTYPE svg PUBLIC "-//W3C//DTD SVG 20010904//EN"
 "http://www.w3.org/TR/2001/REC-SVG-20010904/DTD/svg10.dtd">
<svg version="1.0" xmlns="http://www.w3.org/2000/svg"
 width="128.000000pt" height="128.000000pt" viewBox="0 0 128.000000 128.000000"
 preserveAspectRatio="xMidYMid meet">
<metadata>
Created by potrace 1.11, written by Peter Selinger 2001-2013
</metadata>
<g transform="translate(0.000000,128.000000) scale(0.100000,-0.100000)"
fill="#000000" stroke="none">
<path d="M73 1203 c9 -119 35 -221 79 -307 34 -67 134 -156 231 -206 48 -25
87 -51 87 -59 0 -7 -16 -35 -35 -61 -19 -26 -51 -83 -71 -126 -73 -162 -69
-155 -267 -368 -43 -45 -62 -76 -49 -76 25 0 112 70 240 193 l34 32 -8 -40 -7
-40 29 35 c16 19 47 50 68 70 22 19 44 40 51 46 18 18 115 65 144 71 82 14
182 90 218 165 12 24 31 72 43 108 29 84 64 144 106 186 44 42 139 90 209 104
31 6 53 15 50 19 -5 9 -64 0 -178 -29 -44 -12 -50 -11 -71 9 -40 38 -112 28
-173 -23 -39 -33 -42 -29 -83 94 -27 78 -92 231 -107 250 -7 8 -22 -23 -39
-80 -23 -79 -25 -88 -31 -162 -5 -63 -4 -70 22 -105 26 -35 26 -36 4 -17 -49
42 -113 91 -222 168 -51 36 -130 101 -177 146 -46 44 -89 80 -94 80 -5 0 -6
-34 -3 -77z"/>
</g>
</svg>
